<svg viewBox="0 0 42 24" xmlns="http://www.w3.org/2000/svg">
  <defs>
    <linearGradient x1="0%" y1="49.993%" x2="84%" y2="49.993%" id="a">
      <stop stop-color="#00ACF6" offset="0%"/>
      <stop stop-color="#00CBEC" offset="34%"/>
      <stop stop-color="#00FCD7" offset="100%"/>
    </linearGradient>
  </defs>
  <path d="M28.447 0l-2.151 4.339L24.15 0H0l10.24 20.625a6.057 6.057 0 0 0 5.15 3.369 6.048 6.048 0 0 0 5.427-2.892c.05-.079.094-.161.138-.243A6.015 6.015 0 0 0 26.252 24h.094a6.024 6.024 0 0 0 5.42-3.375L42 0H28.447zM15.66 21.333a3.391 3.391 0 0 1-3.052-1.896L4.284 2.667h7.634l6.813 13.73a3.457 3.457 0 0 1-.178 3.325 3.404 3.404 0 0 1-2.893 1.61zm6.844-18.666l6.8 13.692a3.45 3.45 0 0 1-1.6 4.45 3.4 3.4 0 0 1-4.494-1.375L14.873 2.667h7.63zm15.212 0L31.59 14.991l-3.817-7.673 2.312-4.651h7.63z" fill="url(#a)" fill-rule="nonzero"/>
</svg>